<svg xmlns="http://www.w3.org/2000/svg" viewBox="0 0 500 500">
  <!-- Background circle with primary/10 -->
  <circle cx="250" cy="250" r="240" fill="rgba(238, 97, 15, 0.1)"/>

  <!-- Lucide File User Icon (scaled and centered) -->
  <g transform="translate(130, 130) scale(8.5)">
    <path
      d="M6 22a2 2 0 0 1-2-2V4a2 2 0 0 1 2-2h8a2.4 2.4 0 0 1 1.704.706l3.588 3.588A2.4 2.4 0 0 1 20 8v12a2 2 0 0 1-2 2z"
      fill="none"
      stroke="rgb(238, 97, 15)"
      stroke-width="2"
      stroke-linecap="round"
      stroke-linejoin="round"
    />
    <path
      d="M14 2v5a1 1 0 0 0 1 1h5"
      fill="none"
      stroke="rgb(238, 97, 15)"
      stroke-width="2"
      stroke-linecap="round"
      stroke-linejoin="round"
    />
    <path
      d="M16 22a4 4 0 0 0-8 0"
      fill="none"
      stroke="rgb(238, 97, 15)"
      stroke-width="2"
      stroke-linecap="round"
      stroke-linejoin="round"
    />
    <circle cx="12" cy="15" r="3" fill="none" stroke="rgb(238, 97, 15)" stroke-width="2" stroke-linecap="round" stroke-linejoin="round"/>
  </g>
</svg>
