<svg xmlns="http://www.w3.org/2000/svg" viewBox="0 0 32 32">
  <!-- Background circle with primary/white mix -->
  <circle cx="16" cy="16" r="15" fill="#EEF2FF"/>

  <!-- Lucide File User Icon (centered and scaled) -->
  <!-- Icon viewBox is 24x24, centering it perfectly in 32x32 viewBox -->
  <!-- Center of 32x32 is (16,16), center of 24x24 icon is (12,12), so translate(4,4) centers it -->
  <g transform="translate(4, 4)">
    <path
      d="M6 22a2 2 0 0 1-2-2V4a2 2 0 0 1 2-2h8a2.4 2.4 0 0 1 1.704.706l3.588 3.588A2.4 2.4 0 0 1 20 8v12a2 2 0 0 1-2 2z"
      fill="none"
      stroke="#615FFF"
      stroke-width="2"
      stroke-linecap="round"
      stroke-linejoin="round"
    />
    <path
      d="M14 2v5a1 1 0 0 0 1 1h5"
      fill="none"
      stroke="#615FFF"
      stroke-width="2"
      stroke-linecap="round"
      stroke-linejoin="round"
    />
    <path
      d="M16 22a4 4 0 0 0-8 0"
      fill="none"
      stroke="#615FFF"
      stroke-width="2"
      stroke-linecap="round"
      stroke-linejoin="round"
    />
    <circle cx="12" cy="15" r="3" fill="none" stroke="#615FFF" stroke-width="2" stroke-linecap="round" stroke-linejoin="round"/>
  </g>
</svg>
