<svg xmlns="http://www.w3.org/2000/svg" width="256" height="256" viewBox="0 0 256 256">
  <circle cx="128" cy="128" r="120" fill="#d1f5ea" />
  <g transform="translate(128, 128) scale(7.04) translate(-12, -12)"
     fill="none" stroke="#007d65" stroke-width="2" stroke-linecap="round" stroke-linejoin="round">
    
    <path d="M6 22a2 2 0 0 1-2-2V4a2 2 0 0 1 2-2h8a2.4 2.4 0 0 1 1.704.706l3.588 3.588A2.4 2.4 0 0 1 20 8v12a2 2 0 0 1-2 2z" />
    <path d="M14 2v5a1 1 0 0 0 1 1h5" />
    <path d="M16 22a4 4 0 0 0-8 0" />
    <circle cx="12" cy="15" r="3" />

  </g>
</svg>
